<svg width="5" height="17" viewBox="0 0 5 17" fill="none" xmlns="http://www.w3.org/2000/svg">
<path d="M2.1875 12.5C3.35938 12.5 4.375 13.5156 4.375 14.6875C4.375 15.8984 3.35938 16.875 2.1875 16.875C0.976562 16.875 0 15.8984 0 14.6875C0 13.5156 0.976562 12.5 2.1875 12.5ZM2.1875 6.25C3.35938 6.25 4.375 7.26562 4.375 8.4375C4.375 9.64844 3.35938 10.625 2.1875 10.625C0.976562 10.625 0 9.64844 0 8.4375C0 7.26562 0.976562 6.25 2.1875 6.25ZM2.1875 4.375C0.976562 4.375 0 3.39844 0 2.1875C0 1.01562 0.976562 0 2.1875 0C3.35938 0 4.375 1.01562 4.375 2.1875C4.375 3.39844 3.35938 4.375 2.1875 4.375Z" fill="#3E3232" fill-opacity="0.75"/>
</svg>
